<svg id="Capa_1" data-name="Capa 1" xmlns="http://www.w3.org/2000/svg" viewBox="0 0 564.03 191.07"><defs><style>.cls-1{font-size:132.37px;font-family:Poppins-SemiBold, Poppins;font-weight:600;}.cls-1,.cls-2{fill:#793dfd;}</style></defs><title>lockup-color</title><text class="cls-1" transform="translate(152.23 112.58)">MITRA</text><path class="cls-2" d="M130.42,48.67c-.28,11.83-6.17,20.39-15.94,26.48-10.67,6.65-25.23,5.1-35.63-3.8-4-3.41-7.55-7.25-11.34-10.86-2.26-2.17-3-2.23-5.11-.08-3.82,3.83-7.89,7.4-11.33,11.6-5.68,6.91-4.77,17.81,2.36,24.1s15.41,6,23.84-1c1.89-1.58,3.23-3.78,5.65-4.77a6.67,6.67,0,0,1,7.16,1.32A6.19,6.19,0,0,1,91.32,99c-2.54,4.57-6.61,7.62-10.93,10.26a32.83,32.83,0,0,1-12.23,4.37C59.47,115,52,112.4,45.53,106.91c-9.27-7.83-13-18-11.15-29.87A27.45,27.45,0,0,1,42,62.13q5.8-6,11.75-11.89c.92-.9,1.56-1.87.56-2.85-4.68-4.62-8.52-10.22-14.39-13.49-7.72-4.31-18.3-1.55-23.15,5.55-5.59,8.17-3.93,16.95,3.4,24.08,2.13,2.07,4.22,4,3.86,7.39-.5,4.88-5.66,7.73-9.66,4.91A32.53,32.53,0,0,1,1.08,56.89C-1.72,46.12,1,36.75,8.28,28.81c8.49-9.27,19.42-11.95,31.47-9.35,6.51,1.4,11.7,5.48,16.16,10.42,2.24,2.48,4.67,4.79,7,7.19,1.47,1.52,2.81,1.56,4.4,0,4.51-4.33,8.25-9.47,13.31-13.21a30.62,30.62,0,0,1,26-5.43A29.26,29.26,0,0,1,125.81,32,30,30,0,0,1,130.42,48.67ZM117,48.32A19.25,19.25,0,0,0,115.4,41C112,31.62,98.54,27.83,90,33.6c-5.51,3.74-9.32,9.3-14.14,13.78-1.16,1.07-.65,2.06.38,3,3,2.91,6,5.92,9,8.84a24.19,24.19,0,0,0,6.88,4.88c5.75,2.59,11.42,2.54,16.6-1.12S117.4,54.72,117,48.32Z"/></svg>